<?xml version="1.0" encoding="UTF-8"?>
<svg xmlns="http://www.w3.org/2000/svg"
  width="40px" height="40px"
  viewBox="0 0 40 40"
  version="1.1">
  <defs>
    <linearGradient id="sw-gradient" x1="0" x2="1" y1="1" y2="0">
      <stop id="stop1" stop-color="#0f0f00" offset="0"/>
      <stop id="stop2" stop-color="#E10098" offset="1"/>
    </linearGradient>
  </defs>
  <g id="surface1">
    <path style=" stroke:none;fill-rule:nonzero;fill:url(#linear0);"
      d="M 22.679688 9.628906 C 23.878906 9.988281 27.496094 8.445312 28.015625 10.964844 C 28.535156 13.445312 25.015625 13.386719 26.574219 15.667969 C 28.09375 17.988281 29.222656 17.972656 28.261719 19.691406 C 27.261719 21.410156 27.421875 22.613281 24.664062 22.054688 C 21.902344 21.535156 22.886719 24.339844 20.40625 25.261719 C 17.886719 26.179688 16.355469 23.320312 16.632812 22.363281 C 16.988281 21.125 13.488281 23.335938 12.046875 20.695312 C 10.609375 18.058594 14.285156 16.355469 13.402344 14.996094 C 12.5625 13.636719 10.25 13.28125 11.652344 10.5625 C 13.050781 7.839844 14.332031 9.007812 15.929688 8.847656 C 17.492188 8.6875 16.578125 6.363281 19.578125 6.523438 C 22.617188 6.726562 21.441406 9.226562 22.679688 9.628906 Z M 22.679688 9.628906 "/>
  </g>
</svg>
