<?xml version="1.0" encoding="utf-8"?>
<svg id="sw-js-blob-svg" viewBox="0 0 100 100" xmlns="http://www.w3.org/2000/svg">
  <defs>
    <linearGradient id="sw-gradient" x1="0" x2="1" y1="1" y2="0">
      <stop id="stop1" stop-color="#0f0f00" offset="0"/>
      <stop id="stop2" stop-color="#E10098" offset="1"/>
    </linearGradient>
  </defs>
  <path fill="url(#sw-gradient)" d="M 6.699 -25.931 C 9.699 -25.031 18.741 -28.886 20.041 -22.586 C 21.341 -16.386 12.538 -16.532 16.438 -10.832 C 20.238 -5.032 23.059 -5.072 20.659 -0.772 C 18.159 3.528 18.557 6.535 11.657 5.135 C 4.757 3.835 7.212 10.85 1.012 13.15 C -5.288 15.45 -9.111 8.298 -8.421 5.912 C -7.525 2.812 -16.28 8.342 -19.88 1.742 C -23.48 -4.858 -14.291 -9.112 -16.491 -12.512 C -18.591 -15.912 -24.373 -16.796 -20.873 -23.596 C -17.373 -30.396 -14.171 -27.48 -10.171 -27.88 C -6.271 -28.28 -8.556 -34.088 -1.056 -33.688 C 6.544 -33.188 3.599 -26.931 6.699 -25.931 Z" transform="translate(50 50)" stroke-width="0" style="transition: all 0.3s ease 0s;" stroke="url(#sw-gradient)"/>
</svg>
